<svg id="SvgjsSvg1006" width="905.75" height="1051.5" xmlns="http://www.w3.org/2000/svg" version="1.1" xmlns:xlink="http://www.w3.org/1999/xlink" xmlns:svgjs="http://svgjs.com/svgjs"><defs id="SvgjsDefs1007"><marker id="SvgjsMarker1052" markerWidth="16" markerHeight="16" refX="11" refY="8" viewBox="0 0 16 16" orient="auto" markerUnits="userSpaceOnUse" stroke-dasharray="0,0"><path id="SvgjsPath1053" d="M0,0 L10,8 L0,16" fill="none" stroke="#323232" stroke-width="2"></path></marker><marker id="SvgjsMarker1078" markerWidth="14" markerHeight="12" refX="16" refY="6" viewBox="0 0 14 12" orient="auto" markerUnits="userSpaceOnUse" stroke-dasharray="0,0"><path id="SvgjsPath1079" d="M1,1 L14,6 L1,11L1,1" fill="#ffffff" stroke="#323232" stroke-width="2"></path></marker><marker id="SvgjsMarker1110" markerWidth="14" markerHeight="12" refX="16" refY="6" viewBox="0 0 14 12" orient="auto" markerUnits="userSpaceOnUse" stroke-dasharray="0,0"><path id="SvgjsPath1111" d="M1,1 L14,6 L1,11L1,1" fill="#ffffff" stroke="#323232" stroke-width="2"></path></marker></defs><g id="SvgjsG1008" transform="translate(271.75,25)"><path id="SvgjsPath1009" d="M 0 4Q 0 0 4 0L 226 0Q 230 0 230 4L 230 118Q 230 122 226 122L 4 122Q 0 122 0 118Z" stroke="rgba(50,50,50,1)" stroke-width="2" fill-opacity="1" fill="#ffffff"></path><path id="SvgjsPath1010" d="M 0 30L 230 30M 0 64L 230 64" stroke="rgba(50,50,50,1)" stroke-width="2" fill="none"></path><path id="SvgjsPath1011" d="M 0 0L 230 0L 230 122L 0 122Z" stroke="none" fill="none"></path><g id="SvgjsG1012"><text id="SvgjsText1013" font-family="微软雅黑" text-anchor="middle" font-size="13px" width="210px" fill="#323232" font-weight="700" align="middle" lineHeight="125%" anchor="middle" family="微软雅黑" size="13px" weight="700" font-style="" opacity="1" y="5.375" transform="rotate(0)"><tspan id="SvgjsTspan1014" dy="16" x="115"><tspan id="SvgjsTspan1015" style="text-decoration:;">Animal</tspan></tspan></text></g><g id="SvgjsG1016"><text id="SvgjsText1017" font-family="微软雅黑" text-anchor="start" font-size="13px" width="210px" fill="#323232" font-weight="400" align="middle" lineHeight="125%" anchor="start" family="微软雅黑" size="13px" weight="400" font-style="" opacity="1" y="28.375" transform="rotate(0)"><tspan id="SvgjsTspan1018" dy="16" x="10"><tspan id="SvgjsTspan1019" style="text-decoration:;">+ attribute1:water:Water</tspan></tspan><tspan id="SvgjsTspan1020" dy="16" x="10"><tspan id="SvgjsTspan1021" style="text-decoration:;"> </tspan></tspan></text></g><g id="SvgjsG1022"><text id="SvgjsText1023" font-family="微软雅黑" text-anchor="start" font-size="13px" width="210px" fill="#323232" font-weight="400" align="middle" lineHeight="125%" anchor="start" family="微软雅黑" size="13px" weight="400" font-style="" opacity="1" y="68.375" transform="rotate(0)"><tspan id="SvgjsTspan1024" dy="16" x="10"><tspan id="SvgjsTspan1025" style="text-decoration:;">+ operation1(params):returnType</tspan></tspan><tspan id="SvgjsTspan1026" dy="16" x="10"><tspan id="SvgjsTspan1027" style="text-decoration:;">- operation2(params)</tspan></tspan><tspan id="SvgjsTspan1028" dy="16" x="10"><tspan id="SvgjsTspan1029" style="text-decoration:;">- operation3()</tspan></tspan></text></g></g><g id="SvgjsG1030" transform="translate(650.75,26)"><path id="SvgjsPath1031" d="M 0 4Q 0 0 4 0L 226 0Q 230 0 230 4L 230 116Q 230 120 226 120L 4 120Q 0 120 0 116Z" stroke="rgba(50,50,50,1)" stroke-width="2" fill-opacity="1" fill="#ffffff"></path><path id="SvgjsPath1032" d="M 0 30L 230 30M 0 62L 230 62" stroke="rgba(50,50,50,1)" stroke-width="2" fill="none"></path><path id="SvgjsPath1033" d="M 0 0L 230 0L 230 120L 0 120Z" stroke="none" fill="none"></path><g id="SvgjsG1034"><text id="SvgjsText1035" font-family="微软雅黑" text-anchor="middle" font-size="13px" width="210px" fill="#323232" font-weight="700" align="middle" lineHeight="125%" anchor="middle" family="微软雅黑" size="13px" weight="700" font-style="" opacity="1" y="5.375" transform="rotate(0)"><tspan id="SvgjsTspan1036" dy="16" x="115"><tspan id="SvgjsTspan1037" style="text-decoration:;">Water</tspan></tspan></text></g><g id="SvgjsG1038"><text id="SvgjsText1039" font-family="微软雅黑" text-anchor="start" font-size="13px" width="210px" fill="#323232" font-weight="400" align="middle" lineHeight="125%" anchor="start" family="微软雅黑" size="13px" weight="400" font-style="" opacity="1" y="35.375" transform="rotate(0)"><tspan id="SvgjsTspan1040" dy="16" x="10"><tspan id="SvgjsTspan1041" style="text-decoration:;">+ attribute1:type = defaultValue</tspan></tspan></text></g><g id="SvgjsG1042"><text id="SvgjsText1043" font-family="微软雅黑" text-anchor="start" font-size="13px" width="210px" fill="#323232" font-weight="400" align="middle" lineHeight="125%" anchor="start" family="微软雅黑" size="13px" weight="400" font-style="" opacity="1" y="66.375" transform="rotate(0)"><tspan id="SvgjsTspan1044" dy="16" x="10"><tspan id="SvgjsTspan1045" style="text-decoration:;">+ operation1(params):returnType</tspan></tspan><tspan id="SvgjsTspan1046" dy="16" x="10"><tspan id="SvgjsTspan1047" style="text-decoration:;">- operation2(params)</tspan></tspan><tspan id="SvgjsTspan1048" dy="16" x="10"><tspan id="SvgjsTspan1049" style="text-decoration:;">- operation3()</tspan></tspan></text></g></g><g id="SvgjsG1050"><path id="SvgjsPath1051" d="M501.75 86L576.25 86L576.25 87L650.75 87" stroke-dasharray="8,5" stroke="#323232" stroke-width="2" fill="none" marker-end="url(#SvgjsMarker1052)"></path><rect id="SvgjsRect1054" width="26" height="16" x="563.25" y="78.5" fill="#ffffff"></rect><text id="SvgjsText1055" font-family="微软雅黑" text-anchor="middle" font-size="13px" width="26px" fill="#323232" font-weight="400" align="top" lineHeight="16px" anchor="middle" family="微软雅黑" size="13px" weight="400" font-style="" opacity="1" y="76.875" transform="rotate(0)"><tspan id="SvgjsTspan1056" dy="16" x="576.25"><tspan id="SvgjsTspan1057" style="text-decoration:;">依赖</tspan></tspan></text></g><g id="SvgjsG1058" transform="translate(262.25,266)"><path id="SvgjsPath1059" d="M 0 4Q 0 0 4 0L 245 0Q 249 0 249 4L 249 90Q 249 94 245 94L 4 94Q 0 94 0 90Z" stroke="rgba(50,50,50,1)" stroke-width="2" fill-opacity="1" fill="#ffffff"></path><path id="SvgjsPath1060" d="M 0 30L 249 30M 0 62L 249 62" stroke="rgba(50,50,50,1)" stroke-width="2" fill="none"></path><path id="SvgjsPath1061" d="M 0 0L 249 0L 249 94L 0 94Z" stroke="none" fill="none"></path><g id="SvgjsG1062"><text id="SvgjsText1063" font-family="微软雅黑" text-anchor="middle" font-size="13px" width="229px" fill="#323232" font-weight="700" align="middle" lineHeight="125%" anchor="middle" family="微软雅黑" size="13px" weight="700" font-style="" opacity="1" y="5.375" transform="rotate(0)"><tspan id="SvgjsTspan1064" dy="16" x="124.5"><tspan id="SvgjsTspan1065" style="text-decoration:;">Bird</tspan></tspan></text></g><g id="SvgjsG1066"><text id="SvgjsText1067" font-family="微软雅黑" text-anchor="start" font-size="13px" width="229px" fill="#323232" font-weight="400" align="middle" lineHeight="125%" anchor="start" family="微软雅黑" size="13px" weight="400" font-style="" opacity="1" y="36.375" transform="rotate(0)"><tspan id="SvgjsTspan1068" dy="16" x="10"><tspan id="SvgjsTspan1069" style="text-decoration:;">+ attribute1:wingColor = defaultValue</tspan></tspan></text></g><g id="SvgjsG1070"><text id="SvgjsText1071" font-family="微软雅黑" text-anchor="start" font-size="13px" width="229px" fill="#323232" font-weight="400" align="middle" lineHeight="125%" anchor="start" family="微软雅黑" size="13px" weight="400" font-style="" opacity="1" y="60.375" transform="rotate(0)"><tspan id="SvgjsTspan1072" dy="16" x="10"><tspan id="SvgjsTspan1073" style="text-decoration:;">+ fly(params):returnType</tspan></tspan><tspan id="SvgjsTspan1074" dy="16" x="10"><tspan id="SvgjsTspan1075" style="text-decoration:;"> </tspan></tspan></text></g></g><g id="SvgjsG1076"><path id="SvgjsPath1077" d="M386.75 266L386.75 210.5L386.75 210.5L386.75 155" stroke="#323232" stroke-width="2" fill="none" marker-end="url(#SvgjsMarker1078)"></path><rect id="SvgjsRect1080" width="26" height="16" x="373.75" y="202.5" fill="#ffffff"></rect><text id="SvgjsText1081" font-family="微软雅黑" text-anchor="middle" font-size="13px" width="26px" fill="#323232" font-weight="400" align="top" lineHeight="16px" anchor="middle" family="微软雅黑" size="13px" weight="400" font-style="" opacity="1" y="200.875" transform="rotate(0)"><tspan id="SvgjsTspan1082" dy="16" x="386.75"><tspan id="SvgjsTspan1083" style="text-decoration:;">泛化</tspan></tspan></text></g><g id="SvgjsG1084" transform="translate(25,293)"><path id="SvgjsPath1085" d="M 0 20C 0 -6.666666666666667 40 -6.666666666666667 40 20C 40 46.666666666666664 0 46.666666666666664 0 20Z" stroke="rgba(50,50,50,1)" stroke-width="2" fill-opacity="1" fill="#ffffff"></path><g id="SvgjsG1086"><text id="SvgjsText1087" font-family="微软雅黑" text-anchor="middle" font-size="13px" width="80px" fill="#323232" font-weight="400" align="middle" lineHeight="125%" anchor="middle" family="微软雅黑" size="13px" weight="400" font-style="" opacity="1" y="45.375" transform="rotate(0)"></text></g></g><g id="SvgjsG1088"><path id="SvgjsPath1089" d="M65 313L163.625 313L163.625 313L262.25 313" stroke="#323232" stroke-width="2" fill="none"></path><rect id="SvgjsRect1090" width="52" height="16" x="137.625" y="305" fill="#ffffff"></rect><text id="SvgjsText1091" font-family="微软雅黑" text-anchor="middle" font-size="13px" width="52px" fill="#323232" font-weight="400" align="top" lineHeight="16px" anchor="middle" family="微软雅黑" size="13px" weight="400" font-style="" opacity="1" y="303.375" transform="rotate(0)"><tspan id="SvgjsTspan1092" dy="16" x="163.625"><tspan id="SvgjsTspan1093" style="text-decoration:;">实现接口</tspan></tspan></text></g><g id="SvgjsG1094" transform="translate(271.75,434.5)"><path id="SvgjsPath1095" d="M 0 4Q 0 0 4 0L 226 0Q 230 0 230 4L 230 86Q 230 90 226 90L 4 90Q 0 90 0 86Z" stroke="rgba(50,50,50,1)" stroke-width="2" fill-opacity="1" fill="#ffffff"></path><path id="SvgjsPath1096" d="M 0 30L 230 30M 0 60L 230 60" stroke="rgba(50,50,50,1)" stroke-width="2" fill="none"></path><path id="SvgjsPath1097" d="M 0 0L 230 0L 230 90L 0 90Z" stroke="none" fill="none"></path><g id="SvgjsG1098"><text id="SvgjsText1099" font-family="微软雅黑" text-anchor="middle" font-size="13px" width="210px" fill="#323232" font-weight="700" align="middle" lineHeight="125%" anchor="middle" family="微软雅黑" size="13px" weight="700" font-style="" opacity="1" y="5.375" transform="rotate(0)"><tspan id="SvgjsTspan1100" dy="16" x="115"><tspan id="SvgjsTspan1101" style="text-decoration:;">Donald Duck</tspan></tspan></text></g><g id="SvgjsG1102"><text id="SvgjsText1103" font-family="微软雅黑" text-anchor="start" font-size="13px" width="210px" fill="#323232" font-weight="400" align="middle" lineHeight="125%" anchor="start" family="微软雅黑" size="13px" weight="400" font-style="" opacity="1" y="35.375" transform="rotate(0)"></text></g><g id="SvgjsG1104"><text id="SvgjsText1105" font-family="微软雅黑" text-anchor="start" font-size="13px" width="210px" fill="#323232" font-weight="400" align="middle" lineHeight="125%" anchor="start" family="微软雅黑" size="13px" weight="400" font-style="" opacity="1" y="65.375" transform="rotate(0)"><tspan id="SvgjsTspan1106" dy="16" x="10"><tspan id="SvgjsTspan1107" style="text-decoration:;"> </tspan></tspan></text></g></g><g id="SvgjsG1108"><path id="SvgjsPath1109" d="M386.75 434.5L386.75 397.25L386.75 397.25L386.75 360" stroke="#323232" stroke-width="2" fill="none" marker-end="url(#SvgjsMarker1110)"></path><rect id="SvgjsRect1112" width="26" height="16" x="373.75" y="389.25" fill="#ffffff"></rect><text id="SvgjsText1113" font-family="微软雅黑" text-anchor="middle" font-size="13px" width="26px" fill="#323232" font-weight="400" align="top" lineHeight="16px" anchor="middle" family="微软雅黑" size="13px" weight="400" font-style="" opacity="1" y="387.625" transform="rotate(0)"><tspan id="SvgjsTspan1114" dy="16" x="386.75"><tspan id="SvgjsTspan1115" style="text-decoration:;">泛化</tspan></tspan></text></g><g id="SvgjsG1116" transform="translate(702.375,434.5)"><path id="SvgjsPath1117" d="M 0 4Q 0 0 4 0L 153 0Q 157 0 157 4L 157 86Q 157 90 153 90L 4 90Q 0 90 0 86Z" stroke="rgba(50,50,50,1)" stroke-width="2" fill-opacity="1" fill="#ffffff"></path><path id="SvgjsPath1118" d="M 0 30L 157 30M 0 60L 157 60" stroke="rgba(50,50,50,1)" stroke-width="2" fill="none"></path><path id="SvgjsPath1119" d="M 0 0L 157 0L 157 90L 0 90Z" stroke="none" fill="none"></path><g id="SvgjsG1120"><text id="SvgjsText1121" font-family="微软雅黑" text-anchor="middle" font-size="13px" width="137px" fill="#323232" font-weight="700" align="middle" lineHeight="125%" anchor="middle" family="微软雅黑" size="13px" weight="700" font-style="" opacity="1" y="5.375" transform="rotate(0)"><tspan id="SvgjsTspan1122" dy="16" x="78.5"><tspan id="SvgjsTspan1123" style="text-decoration:;">father</tspan></tspan></text></g><g id="SvgjsG1124"><text id="SvgjsText1125" font-family="微软雅黑" text-anchor="start" font-size="13px" width="137px" fill="#323232" font-weight="400" align="middle" lineHeight="125%" anchor="start" family="微软雅黑" size="13px" weight="400" font-style="" opacity="1" y="35.375" transform="rotate(0)"></text></g><g id="SvgjsG1126"><text id="SvgjsText1127" font-family="微软雅黑" text-anchor="start" font-size="13px" width="137px" fill="#323232" font-weight="400" align="middle" lineHeight="125%" anchor="start" family="微软雅黑" size="13px" weight="400" font-style="" opacity="1" y="65.375" transform="rotate(0)"></text></g></g><g id="SvgjsG1128" transform="translate(702.375,547.5)"><path id="SvgjsPath1129" d="M 0 4Q 0 0 4 0L 153 0Q 157 0 157 4L 157 89Q 157 93 153 93L 4 93Q 0 93 0 89Z" stroke="rgba(50,50,50,1)" stroke-width="2" fill-opacity="1" fill="#ffffff"></path><path id="SvgjsPath1130" d="M 0 30L 157 30M 0 60L 157 60" stroke="rgba(50,50,50,1)" stroke-width="2" fill="none"></path><path id="SvgjsPath1131" d="M 0 0L 157 0L 157 93L 0 93Z" stroke="none" fill="none"></path><g id="SvgjsG1132"><text id="SvgjsText1133" font-family="微软雅黑" text-anchor="middle" font-size="13px" width="137px" fill="#323232" font-weight="700" align="middle" lineHeight="125%" anchor="middle" family="微软雅黑" size="13px" weight="700" font-style="" opacity="1" y="5.375" transform="rotate(0)"><tspan id="SvgjsTspan1134" dy="16" x="78.5"><tspan id="SvgjsTspan1135" style="text-decoration:;">friend</tspan></tspan></text></g><g id="SvgjsG1136"><text id="SvgjsText1137" font-family="微软雅黑" text-anchor="start" font-size="13px" width="137px" fill="#323232" font-weight="400" align="middle" lineHeight="125%" anchor="start" family="微软雅黑" size="13px" weight="400" font-style="" opacity="1" y="35.375" transform="rotate(0)"></text></g><g id="SvgjsG1138"><text id="SvgjsText1139" font-family="微软雅黑" text-anchor="start" font-size="13px" width="137px" fill="#323232" font-weight="400" align="middle" lineHeight="125%" anchor="start" family="微软雅黑" size="13px" weight="400" font-style="" opacity="1" y="65.375" transform="rotate(0)"></text></g></g><g id="SvgjsG1140" transform="translate(706.375,669.5)"><path id="SvgjsPath1141" d="M 0 4Q 0 0 4 0L 153 0Q 157 0 157 4L 157 83Q 157 87 153 87L 4 87Q 0 87 0 83Z" stroke="rgba(50,50,50,1)" stroke-width="2" fill-opacity="1" fill="#ffffff"></path><path id="SvgjsPath1142" d="M 0 30L 157 30M 0 60L 157 60" stroke="rgba(50,50,50,1)" stroke-width="2" fill="none"></path><path id="SvgjsPath1143" d="M 0 0L 157 0L 157 87L 0 87Z" stroke="none" fill="none"></path><g id="SvgjsG1144"><text id="SvgjsText1145" font-family="微软雅黑" text-anchor="middle" font-size="13px" width="137px" fill="#323232" font-weight="700" align="middle" lineHeight="125%" anchor="middle" family="微软雅黑" size="13px" weight="700" font-style="" opacity="1" y="5.375" transform="rotate(0)"><tspan id="SvgjsTspan1146" dy="16" x="78.5"><tspan id="SvgjsTspan1147" style="text-decoration:;">wife</tspan></tspan></text></g><g id="SvgjsG1148"><text id="SvgjsText1149" font-family="微软雅黑" text-anchor="start" font-size="13px" width="137px" fill="#323232" font-weight="400" align="middle" lineHeight="125%" anchor="start" family="微软雅黑" size="13px" weight="400" font-style="" opacity="1" y="35.375" transform="rotate(0)"></text></g><g id="SvgjsG1150"><text id="SvgjsText1151" font-family="微软雅黑" text-anchor="start" font-size="13px" width="137px" fill="#323232" font-weight="400" align="middle" lineHeight="125%" anchor="start" family="微软雅黑" size="13px" weight="400" font-style="" opacity="1" y="65.375" transform="rotate(0)"></text></g></g><g id="SvgjsG1152" transform="translate(706.375,798.5)"><path id="SvgjsPath1153" d="M 0 4Q 0 0 4 0L 153 0Q 157 0 157 4L 157 89Q 157 93 153 93L 4 93Q 0 93 0 89Z" stroke="rgba(50,50,50,1)" stroke-width="2" fill-opacity="1" fill="#ffffff"></path><path id="SvgjsPath1154" d="M 0 30L 157 30M 0 60L 157 60" stroke="rgba(50,50,50,1)" stroke-width="2" fill="none"></path><path id="SvgjsPath1155" d="M 0 0L 157 0L 157 93L 0 93Z" stroke="none" fill="none"></path><g id="SvgjsG1156"><text id="SvgjsText1157" font-family="微软雅黑" text-anchor="middle" font-size="13px" width="137px" fill="#323232" font-weight="700" align="middle" lineHeight="125%" anchor="middle" family="微软雅黑" size="13px" weight="700" font-style="" opacity="1" y="5.375" transform="rotate(0)"><tspan id="SvgjsTspan1158" dy="16" x="78.5"><tspan id="SvgjsTspan1159" style="text-decoration:;">child</tspan></tspan></text></g><g id="SvgjsG1160"><text id="SvgjsText1161" font-family="微软雅黑" text-anchor="start" font-size="13px" width="137px" fill="#323232" font-weight="400" align="middle" lineHeight="125%" anchor="start" family="微软雅黑" size="13px" weight="400" font-style="" opacity="1" y="35.375" transform="rotate(0)"></text></g><g id="SvgjsG1162"><text id="SvgjsText1163" font-family="微软雅黑" text-anchor="start" font-size="13px" width="137px" fill="#323232" font-weight="400" align="middle" lineHeight="125%" anchor="start" family="微软雅黑" size="13px" weight="400" font-style="" opacity="1" y="65.375" transform="rotate(0)"></text></g></g><g id="SvgjsG1164" transform="translate(711.375,931.5)"><path id="SvgjsPath1165" d="M 0 4Q 0 0 4 0L 153 0Q 157 0 157 4L 157 90.5Q 157 94.5 153 94.5L 4 94.5Q 0 94.5 0 90.5Z" stroke="rgba(50,50,50,1)" stroke-width="2" fill-opacity="1" fill="#ffffff"></path><path id="SvgjsPath1166" d="M 0 30L 157 30M 0 60L 157 60" stroke="rgba(50,50,50,1)" stroke-width="2" fill="none"></path><path id="SvgjsPath1167" d="M 0 0L 157 0L 157 94.5L 0 94.5Z" stroke="none" fill="none"></path><g id="SvgjsG1168"><text id="SvgjsText1169" font-family="微软雅黑" text-anchor="middle" font-size="13px" width="137px" fill="#323232" font-weight="700" align="middle" lineHeight="125%" anchor="middle" family="微软雅黑" size="13px" weight="700" font-style="" opacity="1" y="5.375" transform="rotate(0)"><tspan id="SvgjsTspan1170" dy="16" x="78.5"><tspan id="SvgjsTspan1171" style="text-decoration:;">house</tspan></tspan></text></g><g id="SvgjsG1172"><text id="SvgjsText1173" font-family="微软雅黑" text-anchor="start" font-size="13px" width="137px" fill="#323232" font-weight="400" align="middle" lineHeight="125%" anchor="start" family="微软雅黑" size="13px" weight="400" font-style="" opacity="1" y="35.375" transform="rotate(0)"></text></g><g id="SvgjsG1174"><text id="SvgjsText1175" font-family="微软雅黑" text-anchor="start" font-size="13px" width="137px" fill="#323232" font-weight="400" align="middle" lineHeight="125%" anchor="start" family="微软雅黑" size="13px" weight="400" font-style="" opacity="1" y="65.375" transform="rotate(0)"></text></g></g><g id="SvgjsG1176"><path id="SvgjsPath1177" d="M501.75 479.5L602.0625 479.5L602.0625 479.5L702.375 479.5" stroke="#323232" stroke-width="2" fill="none"></path></g><g id="SvgjsG1178" transform="translate(453.25,445.5)"><path id="SvgjsPath1179" d="M 0 0L 120 0L 120 40L 0 40Z" stroke="none" fill="none"></path><g id="SvgjsG1180"><text id="SvgjsText1181" font-family="微软雅黑" text-anchor="middle" font-size="13px" width="120px" fill="#323232" font-weight="400" align="middle" lineHeight="125%" anchor="middle" family="微软雅黑" size="13px" weight="400" font-style="" opacity="1" y="10.375" transform="rotate(0)"><tspan id="SvgjsTspan1182" dy="16" x="60"><tspan id="SvgjsTspan1183" style="text-decoration:;">1</tspan></tspan></text></g></g><g id="SvgjsG1184" transform="translate(627.375,445.5)"><path id="SvgjsPath1185" d="M 0 0L 120 0L 120 40L 0 40Z" stroke="none" fill="none"></path><g id="SvgjsG1186"><text id="SvgjsText1187" font-family="微软雅黑" text-anchor="middle" font-size="13px" width="120px" fill="#323232" font-weight="400" align="middle" lineHeight="125%" anchor="middle" family="微软雅黑" size="13px" weight="400" font-style="" opacity="1" y="10.375" transform="rotate(0)"><tspan id="SvgjsTspan1188" dy="16" x="60"><tspan id="SvgjsTspan1189" style="text-decoration:;">1</tspan></tspan></text></g></g><g id="SvgjsG1190"><path id="SvgjsPath1191" d="M501.75 479.5L702.375 594" stroke="#323232" stroke-width="2" fill="none"></path></g><g id="SvgjsG1192"><path id="SvgjsPath1193" d="M501.75 479.5L696.375 703.5" stroke="#323232" stroke-width="2" fill="none"></path></g><g id="SvgjsG1194"><path id="SvgjsPath1195" d="M501.75 479.5L706.375 845" stroke="#323232" stroke-width="2" fill="none"></path></g><g id="SvgjsG1196"><path id="SvgjsPath1197" d="M501.75 479.5L711.375 978.75" stroke="#323232" stroke-width="2" fill="none"></path></g><g id="SvgjsG1198" transform="translate(621.375,564.5)"><path id="SvgjsPath1199" d="M 0 0L 120 0L 120 40L 0 40Z" stroke="none" fill="none"></path><g id="SvgjsG1200"><text id="SvgjsText1201" font-family="微软雅黑" text-anchor="middle" font-size="13px" width="120px" fill="#323232" font-weight="400" align="middle" lineHeight="125%" anchor="middle" family="微软雅黑" size="13px" weight="400" font-style="" opacity="1" y="10.375" transform="rotate(0)"><tspan id="SvgjsTspan1202" dy="16" x="60"><tspan id="SvgjsTspan1203" style="text-decoration:;">0..*</tspan></tspan></text></g></g><g id="SvgjsG1204" transform="translate(636.375,663.5)"><path id="SvgjsPath1205" d="M 0 0L 120 0L 120 40L 0 40Z" stroke="none" fill="none"></path><g id="SvgjsG1206"><text id="SvgjsText1207" font-family="微软雅黑" text-anchor="middle" font-size="13px" width="120px" fill="#323232" font-weight="400" align="middle" lineHeight="125%" anchor="middle" family="微软雅黑" size="13px" weight="400" font-style="" opacity="1" y="10.375" transform="rotate(0)"><tspan id="SvgjsTspan1208" dy="16" x="60"><tspan id="SvgjsTspan1209" style="text-decoration:;">0..1</tspan></tspan></text></g></g><g id="SvgjsG1210"><path id="SvgjsPath1211" d="M696.375 703.5L706.375 713" stroke="#323232" stroke-width="2" fill="none"></path></g><g id="SvgjsG1212" transform="translate(636.375,776.5)"><path id="SvgjsPath1213" d="M 0 0L 120 0L 120 40L 0 40Z" stroke="none" fill="none"></path><g id="SvgjsG1214"><text id="SvgjsText1215" font-family="微软雅黑" text-anchor="middle" font-size="13px" width="120px" fill="#323232" font-weight="400" align="middle" lineHeight="125%" anchor="middle" family="微软雅黑" size="13px" weight="400" font-style="" opacity="1" y="10.375" transform="rotate(0)"><tspan id="SvgjsTspan1216" dy="16" x="60"><tspan id="SvgjsTspan1217" style="text-decoration:;">0..2</tspan></tspan></text></g></g><g id="SvgjsG1218" transform="translate(636.375,884.5)"><path id="SvgjsPath1219" d="M 0 0L 120 0L 120 40L 0 40Z" stroke="none" fill="none"></path><g id="SvgjsG1220"><text id="SvgjsText1221" font-family="微软雅黑" text-anchor="middle" font-size="13px" width="120px" fill="#323232" font-weight="400" align="middle" lineHeight="125%" anchor="middle" family="微软雅黑" size="13px" weight="400" font-style="" opacity="1" y="10.375" transform="rotate(0)"><tspan id="SvgjsTspan1222" dy="16" x="60"><tspan id="SvgjsTspan1223" style="text-decoration:;">1..*</tspan></tspan></text></g></g></svg>