<svg id="SvgjsSvg1006" width="946.75" height="393.5" xmlns="http://www.w3.org/2000/svg" version="1.1" xmlns:xlink="http://www.w3.org/1999/xlink" xmlns:svgjs="http://svgjs.com/svgjs"><defs id="SvgjsDefs1007"><marker id="SvgjsMarker1052" markerWidth="16" markerHeight="16" refX="11" refY="8" viewBox="0 0 16 16" orient="auto" markerUnits="userSpaceOnUse" stroke-dasharray="0,0"><path id="SvgjsPath1053" d="M0,0 L10,8 L0,16" fill="none" stroke="#323232" stroke-width="2"></path></marker><marker id="SvgjsMarker1078" markerWidth="14" markerHeight="12" refX="16" refY="6" viewBox="0 0 14 12" orient="auto" markerUnits="userSpaceOnUse" stroke-dasharray="0,0"><path id="SvgjsPath1079" d="M1,1 L14,6 L1,11L1,1" fill="#ffffff" stroke="#323232" stroke-width="2"></path></marker></defs><g id="SvgjsG1008" transform="translate(312.75,25)"><path id="SvgjsPath1009" d="M 0 4Q 0 0 4 0L 226 0Q 230 0 230 4L 230 118Q 230 122 226 122L 4 122Q 0 122 0 118Z" stroke="rgba(50,50,50,1)" stroke-width="2" fill-opacity="1" fill="#ffffff"></path><path id="SvgjsPath1010" d="M 0 30L 230 30M 0 64L 230 64" stroke="rgba(50,50,50,1)" stroke-width="2" fill="none"></path><path id="SvgjsPath1011" d="M 0 0L 230 0L 230 122L 0 122Z" stroke="none" fill="none"></path><g id="SvgjsG1012"><text id="SvgjsText1013" font-family="微软雅黑" text-anchor="middle" font-size="13px" width="210px" fill="#323232" font-weight="700" align="middle" lineHeight="125%" anchor="middle" family="微软雅黑" size="13px" weight="700" font-style="" opacity="1" y="5.375" transform="rotate(0)"><tspan id="SvgjsTspan1014" dy="16" x="115"><tspan id="SvgjsTspan1015" style="text-decoration:;">Animal</tspan></tspan></text></g><g id="SvgjsG1016"><text id="SvgjsText1017" font-family="微软雅黑" text-anchor="start" font-size="13px" width="210px" fill="#323232" font-weight="400" align="middle" lineHeight="125%" anchor="start" family="微软雅黑" size="13px" weight="400" font-style="" opacity="1" y="28.375" transform="rotate(0)"><tspan id="SvgjsTspan1018" dy="16" x="10"><tspan id="SvgjsTspan1019" style="text-decoration:;">+ attribute1:water:Water</tspan></tspan><tspan id="SvgjsTspan1020" dy="16" x="10"><tspan id="SvgjsTspan1021" style="text-decoration:;"> </tspan></tspan></text></g><g id="SvgjsG1022"><text id="SvgjsText1023" font-family="微软雅黑" text-anchor="start" font-size="13px" width="210px" fill="#323232" font-weight="400" align="middle" lineHeight="125%" anchor="start" family="微软雅黑" size="13px" weight="400" font-style="" opacity="1" y="68.375" transform="rotate(0)"><tspan id="SvgjsTspan1024" dy="16" x="10"><tspan id="SvgjsTspan1025" style="text-decoration:;">+ operation1(params):returnType</tspan></tspan><tspan id="SvgjsTspan1026" dy="16" x="10"><tspan id="SvgjsTspan1027" style="text-decoration:;">- operation2(params)</tspan></tspan><tspan id="SvgjsTspan1028" dy="16" x="10"><tspan id="SvgjsTspan1029" style="text-decoration:;">- operation3()</tspan></tspan></text></g></g><g id="SvgjsG1030" transform="translate(691.75,26)"><path id="SvgjsPath1031" d="M 0 4Q 0 0 4 0L 226 0Q 230 0 230 4L 230 116Q 230 120 226 120L 4 120Q 0 120 0 116Z" stroke="rgba(50,50,50,1)" stroke-width="2" fill-opacity="1" fill="#ffffff"></path><path id="SvgjsPath1032" d="M 0 30L 230 30M 0 62L 230 62" stroke="rgba(50,50,50,1)" stroke-width="2" fill="none"></path><path id="SvgjsPath1033" d="M 0 0L 230 0L 230 120L 0 120Z" stroke="none" fill="none"></path><g id="SvgjsG1034"><text id="SvgjsText1035" font-family="微软雅黑" text-anchor="middle" font-size="13px" width="210px" fill="#323232" font-weight="700" align="middle" lineHeight="125%" anchor="middle" family="微软雅黑" size="13px" weight="700" font-style="" opacity="1" y="5.375" transform="rotate(0)"><tspan id="SvgjsTspan1036" dy="16" x="115"><tspan id="SvgjsTspan1037" style="text-decoration:;">Water</tspan></tspan></text></g><g id="SvgjsG1038"><text id="SvgjsText1039" font-family="微软雅黑" text-anchor="start" font-size="13px" width="210px" fill="#323232" font-weight="400" align="middle" lineHeight="125%" anchor="start" family="微软雅黑" size="13px" weight="400" font-style="" opacity="1" y="35.375" transform="rotate(0)"><tspan id="SvgjsTspan1040" dy="16" x="10"><tspan id="SvgjsTspan1041" style="text-decoration:;">+ attribute1:type = defaultValue</tspan></tspan></text></g><g id="SvgjsG1042"><text id="SvgjsText1043" font-family="微软雅黑" text-anchor="start" font-size="13px" width="210px" fill="#323232" font-weight="400" align="middle" lineHeight="125%" anchor="start" family="微软雅黑" size="13px" weight="400" font-style="" opacity="1" y="66.375" transform="rotate(0)"><tspan id="SvgjsTspan1044" dy="16" x="10"><tspan id="SvgjsTspan1045" style="text-decoration:;">+ operation1(params):returnType</tspan></tspan><tspan id="SvgjsTspan1046" dy="16" x="10"><tspan id="SvgjsTspan1047" style="text-decoration:;">- operation2(params)</tspan></tspan><tspan id="SvgjsTspan1048" dy="16" x="10"><tspan id="SvgjsTspan1049" style="text-decoration:;">- operation3()</tspan></tspan></text></g></g><g id="SvgjsG1050"><path id="SvgjsPath1051" d="M542.75 86L617.25 86L617.25 87L691.75 87" stroke-dasharray="8,5" stroke="#323232" stroke-width="2" fill="none" marker-end="url(#SvgjsMarker1052)"></path><rect id="SvgjsRect1054" width="26" height="16" x="604.25" y="78.5" fill="#ffffff"></rect><text id="SvgjsText1055" font-family="微软雅黑" text-anchor="middle" font-size="13px" width="26px" fill="#323232" font-weight="400" align="top" lineHeight="16px" anchor="middle" family="微软雅黑" size="13px" weight="400" font-style="" opacity="1" y="76.875" transform="rotate(0)"><tspan id="SvgjsTspan1056" dy="16" x="617.25"><tspan id="SvgjsTspan1057" style="text-decoration:;">依赖</tspan></tspan></text></g><g id="SvgjsG1058" transform="translate(303.25,266)"><path id="SvgjsPath1059" d="M 0 4Q 0 0 4 0L 245 0Q 249 0 249 4L 249 90Q 249 94 245 94L 4 94Q 0 94 0 90Z" stroke="rgba(50,50,50,1)" stroke-width="2" fill-opacity="1" fill="#ffffff"></path><path id="SvgjsPath1060" d="M 0 30L 249 30M 0 62L 249 62" stroke="rgba(50,50,50,1)" stroke-width="2" fill="none"></path><path id="SvgjsPath1061" d="M 0 0L 249 0L 249 94L 0 94Z" stroke="none" fill="none"></path><g id="SvgjsG1062"><text id="SvgjsText1063" font-family="微软雅黑" text-anchor="middle" font-size="13px" width="229px" fill="#323232" font-weight="700" align="middle" lineHeight="125%" anchor="middle" family="微软雅黑" size="13px" weight="700" font-style="" opacity="1" y="5.375" transform="rotate(0)"><tspan id="SvgjsTspan1064" dy="16" x="124.5"><tspan id="SvgjsTspan1065" style="text-decoration:;">Bird</tspan></tspan></text></g><g id="SvgjsG1066"><text id="SvgjsText1067" font-family="微软雅黑" text-anchor="start" font-size="13px" width="229px" fill="#323232" font-weight="400" align="middle" lineHeight="125%" anchor="start" family="微软雅黑" size="13px" weight="400" font-style="" opacity="1" y="36.375" transform="rotate(0)"><tspan id="SvgjsTspan1068" dy="16" x="10"><tspan id="SvgjsTspan1069" style="text-decoration:;">+ attribute1:wingColor = defaultValue</tspan></tspan></text></g><g id="SvgjsG1070"><text id="SvgjsText1071" font-family="微软雅黑" text-anchor="start" font-size="13px" width="229px" fill="#323232" font-weight="400" align="middle" lineHeight="125%" anchor="start" family="微软雅黑" size="13px" weight="400" font-style="" opacity="1" y="60.375" transform="rotate(0)"><tspan id="SvgjsTspan1072" dy="16" x="10"><tspan id="SvgjsTspan1073" style="text-decoration:;">+ fly(params):returnType</tspan></tspan><tspan id="SvgjsTspan1074" dy="16" x="10"><tspan id="SvgjsTspan1075" style="text-decoration:;"> </tspan></tspan></text></g></g><g id="SvgjsG1076"><path id="SvgjsPath1077" d="M427.75 266L427.75 210.5L427.75 210.5L427.75 155" stroke="#323232" stroke-width="2" fill="none" marker-end="url(#SvgjsMarker1078)"></path><rect id="SvgjsRect1080" width="26" height="16" x="414.75" y="202.5" fill="#ffffff"></rect><text id="SvgjsText1081" font-family="微软雅黑" text-anchor="middle" font-size="13px" width="26px" fill="#323232" font-weight="400" align="top" lineHeight="16px" anchor="middle" family="微软雅黑" size="13px" weight="400" font-style="" opacity="1" y="200.875" transform="rotate(0)"><tspan id="SvgjsTspan1082" dy="16" x="427.75"><tspan id="SvgjsTspan1083" style="text-decoration:;">泛化</tspan></tspan></text></g><g id="SvgjsG1084" transform="translate(66,293)"><path id="SvgjsPath1085" d="M 0 20C 0 -6.666666666666667 40 -6.666666666666667 40 20C 40 46.666666666666664 0 46.666666666666664 0 20Z" stroke="rgba(50,50,50,1)" stroke-width="2" fill-opacity="1" fill="#ffffff"></path><g id="SvgjsG1086"><text id="SvgjsText1087" font-family="微软雅黑" text-anchor="middle" font-size="13px" width="80px" fill="#323232" font-weight="400" align="middle" lineHeight="125%" anchor="middle" family="微软雅黑" size="13px" weight="400" font-style="" opacity="1" y="45.375" transform="rotate(0)"></text></g></g><g id="SvgjsG1088"><path id="SvgjsPath1089" d="M106 313L204.625 313L204.625 313L303.25 313" stroke="#323232" stroke-width="2" fill="none"></path><rect id="SvgjsRect1090" width="52" height="16" x="178.625" y="305" fill="#ffffff"></rect><text id="SvgjsText1091" font-family="微软雅黑" text-anchor="middle" font-size="13px" width="52px" fill="#323232" font-weight="400" align="top" lineHeight="16px" anchor="middle" family="微软雅黑" size="13px" weight="400" font-style="" opacity="1" y="303.375" transform="rotate(0)"><tspan id="SvgjsTspan1092" dy="16" x="204.625"><tspan id="SvgjsTspan1093" style="text-decoration:;">实现接口</tspan></tspan></text></g><g id="SvgjsG1094" transform="translate(25,328.5)"><path id="SvgjsPath1095" d="M 0 0L 120 0L 120 40L 0 40Z" stroke="none" fill="none"></path><g id="SvgjsG1096"><text id="SvgjsText1097" font-family="微软雅黑" text-anchor="middle" font-size="13px" width="120px" fill="#323232" font-weight="400" align="middle" lineHeight="125%" anchor="middle" family="微软雅黑" size="13px" weight="400" font-style="" opacity="1" y="10.375" transform="rotate(0)"><tspan id="SvgjsTspan1098" dy="16" x="60"><tspan id="SvgjsTspan1099" style="text-decoration:;">lay eggs</tspan></tspan></text></g></g></svg>